<?xml version="1.0" encoding="UTF-8"?>
<!DOCTYPE svg PUBLIC "-//W3C//DTD SVG 1.1//EN" "http://www.w3.org/Graphics/SVG/1.1/DTD/svg11.dtd">
<!-- Creator: CorelDRAW 2021 (64-Bit) -->
<svg xmlns="http://www.w3.org/2000/svg" xml:space="preserve" width="3.93856in" height="0.781685in" version="1.1" style="shape-rendering:geometricPrecision; text-rendering:geometricPrecision; image-rendering:optimizeQuality; fill-rule:evenodd; clip-rule:evenodd"
viewBox="0 0 3937.98 781.57"
 xmlns:xlink="http://www.w3.org/1999/xlink"
 xmlns:xodm="http://www.corel.com/coreldraw/odm/2003">
 <defs>
  <style type="text/css">
   <![CDATA[
    .fil0 {fill:#72BF01}
    .fil1 {fill:#00312D;fill-rule:nonzero}
   ]]>
  </style>
 </defs>
 <g id="Layer_x0020_1">
  <metadata id="CorelCorpID_0Corel-Layer"/>
  <g id="_2035301672864">
   <path class="fil0" d="M2950.63 692.05c20.54,-99.67 -22.07,-197.69 -100.48,-252.53 -5.45,13.56 -9.78,27.81 -12.83,42.63 -8.01,38.86 -6.42,77.48 3.16,113.38 -22.21,-46.82 -29.94,-100.98 -18.67,-155.64 27.47,-133.35 157.58,-219.3 290.91,-192.41l-171.71 251.26 109.37 22.15 -78.14 245.88c10.62,3.5 21.55,6.42 32.77,8.73 42.47,8.75 84.7,7.79 124.36,-1.37 24.02,-5.54 47.09,-14.09 68.72,-25.31 75.35,-39.09 133.09,-110.57 151.55,-200.19 26.57,-128.98 -36.42,-255.62 -146.49,-315.34 -7.42,16.4 -13.15,33.87 -16.93,52.24 -20.54,99.67 22.07,197.69 100.48,252.53 16.56,-61.01 8.51,-102.17 5.03,-149.42 12.97,54.04 25.38,91.49 14.23,150.99 -24.62,131.37 -152.85,216.13 -283.59,193.77l167.37 -246.55 -116.01 -23.5 87.69 -248.6c-12.45,-4.4 -25.35,-8 -38.66,-10.75 -29.83,-6.14 -59.54,-7.5 -88.32,-4.59 -8.43,0.85 -16.78,2.07 -25.04,3.64 -112.6,21.45 -206.7,108.58 -231.27,227.82 -27.1,131.53 38.95,260.62 153.06,318.79 8.65,-17.94 15.25,-37.23 19.45,-57.63z"/>
   <g>
    <path class="fil1" d="M720.31 389.73c0,84.49 -9.33,153.5 -28.17,207.01 -18.66,53.51 -43.83,93.29 -75.52,119.34 -31.68,26.06 -67.24,43.66 -106.85,52.28 -39.61,8.8 -85.55,13.2 -138.18,13.2l-371.6 0 0 -781.57 355.05 0c45.41,0 88.19,4.58 128.5,13.73 40.13,8.98 78.33,26.93 114.42,53.51 36.26,26.76 65.66,66.54 88.37,119.88 22.71,53.34 33.97,120.76 33.97,202.61zm-182.72 -2.82c0,-42.77 -5.98,-82.91 -17.78,-120.4 -11.79,-37.32 -30.98,-67.6 -57.21,-90.48 -26.4,-23.06 -59.85,-34.5 -100.34,-34.5l-198.56 0 0 499.57 191.35 0c41.54,0 75.87,-8.98 102.8,-26.93 27.11,-18.13 47,-45.77 60.2,-83.09 13.03,-37.49 19.54,-85.55 19.54,-144.17z"/>
    <path class="fil1" d="M1484.97 781.57l-373.88 0c-117.59,0 -202.79,-35.03 -255.6,-104.91 -52.81,-69.88 -79.21,-164.94 -79.21,-284.82 0,-79.74 12.85,-148.92 38.72,-207.54 25.7,-58.62 65.13,-104.03 118.12,-136.07 52.98,-32.21 117.94,-48.23 194.87,-48.23l356.98 0 0 141.53 -338.85 0c-45.77,0 -82.74,11.09 -111.07,33.45 -28.34,22.35 -48.76,51.4 -60.91,87.13 -12.14,35.91 -18.3,75.52 -18.3,118.64 0,101.22 17.78,169.87 53.33,206.13 35.56,36.09 78.33,54.22 128.15,54.22l183.95 0 0 -182.72 -216.52 0 0 -140.47 380.22 0 0 463.66z"/>
    <polygon class="fil1" points="2210.55,141.53 1953.02,141.53 1953.02,781.57 1798.88,781.16 1798.88,141.12 1541.29,141.53 1541.29,0 2210.55,0 "/>
    <path class="fil1" d="M3937.98 781.57l-153.14 0 0 -382.78c0,-22.87 -6.16,-41.61 -18.66,-56.02 -12.32,-14.41 -29.05,-21.61 -49.99,-21.61l-149.98 0 0 460.41 -154.2 0 0 -583.62 328.29 0c69.53,0 119.88,19.63 151.03,59.08 31.16,39.45 46.65,88.09 46.65,146.27l0 378.28z"/>
    <path class="fil1" d="M2715.74 460.76l-148.92 0 0 -59.81c0,-23.59 -7.57,-42.69 -22.71,-57.1 -15.14,-14.41 -35.21,-21.61 -60.03,-21.61l-65.13 0 0 459.33 -152.09 0 0 -583.62 264.22 0c68.12,0 115.83,15.67 143.46,47.19 27.46,31.52 41.19,76.19 41.19,134.38l0 81.24z"/>
   </g>
  </g>
 </g>
</svg>
